<svg id="Layer_2_1_" enable-background="new 0 0 128 128" height="512" viewBox="0 0 128 128" width="512" xmlns="http://www.w3.org/2000/svg"><path d="m106.2 72.6h-84.4l-11.8-7.7c-5.1-3.4-8.2-9.1-8.2-15.2 0-7.9 5.1-14.9 12.6-17.4l31.6-10.1c11.7-3.8 24.3-3.8 36 0l31.6 10.2c7.5 2.4 12.6 9.4 12.6 17.4 0 6.1-3.1 11.9-8.2 15.2z" fill="#8ac9ff"/><path d="m21.8 72.6h84.5v11.7h-84.5z" fill="#5e3369"/><path d="m94.8 102.1c-19.6 8.8-42 8.8-61.5 0-7-3.1-11.5-10.1-11.5-17.7h84.5c-.1 7.6-4.6 14.5-11.5 17.7z" fill="#c9cf4f"/><path d="m64 63.7-15.9-4.9c-4.2-1.3-6.6-5.8-5.3-10l21.2 6.5 21.2-6.5c1.3 4.2-1.1 8.7-5.3 10z" fill="#7aacf4"/><path d="m64 45.8-4.7-1.4c-4.2-1.3-6.6-5.8-5.3-10l10 3.1 10-3.1c1.3 4.2-1.1 8.7-5.3 10z" fill="#7aacf4"/><path d="m114.1 30.7-31.6-10.2c-12-3.9-25-3.9-37.1 0l-31.5 10.2c-10.5 3.3-16.3 14.6-12.9 25.1 1.4 4.3 4.2 8.1 8.1 10.6l11 7.2v10.7c0 8.3 4.9 15.9 12.5 19.3 20 9 42.9 9 63 0 .9-.4 1.3-1.5.8-2.3-.4-.9-1.4-1.2-2.3-.9-19.1 8.6-41 8.6-60.1 0-5.8-2.6-9.7-8.1-10.4-14.4h80.8c-.2 1.7-.6 3.4-1.2 5-.3.9.2 1.9 1.1 2.2.8.3 1.8-.1 2.1-.9 1-2.5 1.6-5.3 1.6-8v-10.7l11-7.2c9.2-6 11.8-18.4 5.8-27.7-2.6-3.8-6.3-6.6-10.7-8zm3 32.8-11.3 7.4h-47.4c-1 0-1.8.8-1.8 1.8s.8 1.8 1.8 1.8h46.1v8.2h-81v-8.2h12.5c1 0 1.8-.8 1.8-1.8s-.8-1.8-1.8-1.8h-13.7l-11.3-7.4c-7.6-5-9.7-15.2-4.7-22.8 2.1-3.1 5.1-5.5 8.7-6.7l31.6-10.2c11.4-3.7 23.6-3.7 34.9 0l31.6 10.2c8.7 2.8 13.4 12.1 10.6 20.7-1.2 3.6-3.5 6.7-6.6 8.8z"/><path d="m49.1 70.9h-3.9c-1 0-1.8.8-1.8 1.8s.8 1.8 1.8 1.8h3.9c1 0 1.8-.8 1.8-1.8s-.8-1.8-1.8-1.8z"/><path d="m84.7 47.1-20.7 6.4-20.7-6.3c-.9-.3-1.9.2-2.2 1.2-1.6 5.1 1.3 10.6 6.5 12.2l15.9 4.9c.3.1.7.1 1 0l15.9-4.9c5.1-1.6 8-7 6.5-12.2-.3-1-1.3-1.5-2.2-1.3zm-1.7 7c-.8 1.5-2.1 2.6-3.7 3l-15.3 4.7-15.3-4.7c-2.7-.8-4.5-3.3-4.4-6.1l19.2 6c.3.1.7.1 1 0l19.3-5.9c0 1-.3 2.1-.8 3z"/><path d="m58.8 46.1 4.7 1.4c.3.1.7.1 1 0l4.7-1.4c5.1-1.6 8-7 6.5-12.2-.3-.9-1.3-1.4-2.2-1.2l-9.5 2.9-9.5-2.9c-.9-.3-1.9.2-2.2 1.2-1.5 5.1 1.3 10.6 6.5 12.2zm4.7-7c.3.1.7.1 1 0l8.1-2.5c0 2.8-1.8 5.2-4.4 6.1l-4.2 1.3-4.2-1.3c-2.7-.8-4.5-3.3-4.4-6.1z"/></svg>